<svg width="39" height="39" viewBox="0 0 39 39" fill="none" xmlns="http://www.w3.org/2000/svg"><circle class="color-element" cx="19.4395" cy="19.4395" r="19.4395" fill="#1E88E5"></circle><mask id="path-2-outside-1" maskUnits="userSpaceOnUse" x="-1" y="-1" width="13" height="14" fill="black"><rect fill="white" x="-1" y="-1" width="13" height="14"></rect><path fill-rule="evenodd" clip-rule="evenodd" d="M9.10658 1.73537C9.10658 1.73537 9.10658 1.73538 9.10659 1.73538L9.93879 2.58495C9.9388 2.58495 9.9388 2.58495 9.9388 2.58496C9.99645 2.64381 10.0508 2.70475 10.1019 2.76754C10.3002 3.0113 10.6804 3.07698 10.9003 2.85252C11.0424 2.70754 11.0721 2.4836 10.9533 2.31904C10.849 2.17452 10.7327 2.03614 10.6046 1.90532C10.6046 1.9053 10.6046 1.90529 10.6045 1.90528L9.77236 1.05572C9.77236 1.05572 9.77235 1.05572 9.77235 1.05572C8.39351 -0.351905 6.15792 -0.351905 4.77907 1.05571C4.77907 1.05572 4.77907 1.05572 4.77906 1.05572L1.03414 4.87877C1.03413 4.87878 1.03413 4.87878 1.03413 4.87878C-0.344706 6.2864 -0.34471 8.56858 1.03412 9.9762C1.03413 9.97621 1.03414 9.97622 1.03415 9.97623L1.86633 10.8258C1.86634 10.8258 1.86635 10.8258 1.86636 10.8258C3.24521 12.2334 5.48072 12.2334 6.85962 10.8258C6.85963 10.8258 6.85964 10.8258 6.85964 10.8258L9.28893 8.34581C9.47006 8.1609 9.47006 7.86509 9.28893 7.68018C9.10243 7.48979 8.79591 7.48979 8.60942 7.68018L6.19386 10.1461C6.19386 10.1461 6.19386 10.1461 6.19386 10.1461C5.1827 11.1784 3.54326 11.1784 2.53215 10.1461C2.53213 10.1461 2.53211 10.1461 2.53209 10.1461L1.69991 9.29657C1.69991 9.29657 1.6999 9.29656 1.6999 9.29655C0.688737 8.2643 0.688739 6.59069 1.6999 5.55844C1.6999 5.55843 1.69991 5.55843 1.69991 5.55843L5.44484 1.73538C5.44484 1.73538 5.44484 1.73537 5.44484 1.73537C6.45601 0.703119 8.09541 0.703118 9.10658 1.73537Z"></path></mask><path fill-rule="evenodd" clip-rule="evenodd" d="M9.10658 1.73537C9.10658 1.73537 9.10658 1.73538 9.10659 1.73538L9.93879 2.58495C9.9388 2.58495 9.9388 2.58495 9.9388 2.58496C9.99645 2.64381 10.0508 2.70475 10.1019 2.76754C10.3002 3.0113 10.6804 3.07698 10.9003 2.85252C11.0424 2.70754 11.0721 2.4836 10.9533 2.31904C10.849 2.17452 10.7327 2.03614 10.6046 1.90532C10.6046 1.9053 10.6046 1.90529 10.6045 1.90528L9.77236 1.05572C9.77236 1.05572 9.77235 1.05572 9.77235 1.05572C8.39351 -0.351905 6.15792 -0.351905 4.77907 1.05571C4.77907 1.05572 4.77907 1.05572 4.77906 1.05572L1.03414 4.87877C1.03413 4.87878 1.03413 4.87878 1.03413 4.87878C-0.344706 6.2864 -0.34471 8.56858 1.03412 9.9762C1.03413 9.97621 1.03414 9.97622 1.03415 9.97623L1.86633 10.8258C1.86634 10.8258 1.86635 10.8258 1.86636 10.8258C3.24521 12.2334 5.48072 12.2334 6.85962 10.8258C6.85963 10.8258 6.85964 10.8258 6.85964 10.8258L9.28893 8.34581C9.47006 8.1609 9.47006 7.86509 9.28893 7.68018C9.10243 7.48979 8.79591 7.48979 8.60942 7.68018L6.19386 10.1461C6.19386 10.1461 6.19386 10.1461 6.19386 10.1461C5.1827 11.1784 3.54326 11.1784 2.53215 10.1461C2.53213 10.1461 2.53211 10.1461 2.53209 10.1461L1.69991 9.29657C1.69991 9.29657 1.6999 9.29656 1.6999 9.29655C0.688737 8.2643 0.688739 6.59069 1.6999 5.55844C1.6999 5.55843 1.69991 5.55843 1.69991 5.55843L5.44484 1.73538C5.44484 1.73538 5.44484 1.73537 5.44484 1.73537C6.45601 0.703119 8.09541 0.703118 9.10658 1.73537Z" transform="translate(9.95154 16.0478)" fill="white"></path><path d="M5.44484 1.73538L5.23053 1.52545L5.44484 1.73538ZM5.44484 1.73537L5.23053 1.52544L5.44484 1.73537ZM1.6999 5.55844L1.48559 5.3485L1.6999 5.55844ZM1.69991 5.55843L1.91422 5.76836L1.69991 5.55843ZM1.69991 9.29657L1.91422 9.08664L1.69991 9.29657ZM1.6999 9.29655L1.91421 9.08662L1.6999 9.29655ZM2.53215 10.1461L2.31784 10.3561L2.53215 10.1461ZM2.53209 10.1461L2.31778 10.356L2.53209 10.1461ZM6.19386 10.1461L5.97955 9.93618L6.19386 10.1461ZM6.19386 10.1461L6.40817 10.356L6.19386 10.1461ZM8.60942 7.68018L8.82373 7.89011L8.60942 7.68018ZM9.28893 8.34581L9.07462 8.13588L9.28893 8.34581ZM6.85962 10.8258L6.64532 10.6158L6.85962 10.8258ZM6.85964 10.8258L7.07395 11.0357L6.85964 10.8258ZM1.86633 10.8258L2.08064 10.6158L1.86633 10.8258ZM1.86636 10.8258L2.08067 10.6159L1.86636 10.8258ZM1.03412 9.9762L1.24843 9.76628L1.03412 9.9762ZM1.03415 9.97623L0.819841 10.1862L1.03415 9.97623ZM1.03414 4.87877L0.819827 4.66884L1.03414 4.87877ZM1.03413 4.87878L1.24844 5.08871L1.03413 4.87878ZM4.77907 1.05571L4.99338 1.26564L4.77907 1.05571ZM4.77906 1.05572L4.99338 1.26565L4.77906 1.05572ZM9.77236 1.05572L9.55805 1.26565L9.77236 1.05572ZM9.77235 1.05572L9.98666 0.845785L9.77235 1.05572ZM10.6046 1.90532L10.8189 1.6954L10.6046 1.90532ZM10.6045 1.90528L10.8189 1.69535L10.6045 1.90528ZM10.9533 2.31904L10.7101 2.49464L10.9533 2.31904ZM10.1019 2.76754L9.86916 2.95685L10.1019 2.76754ZM9.10659 1.73538L9.3209 1.52545L9.10659 1.73538ZM9.10658 1.73537L8.89227 1.9453L9.10658 1.73537ZM9.93879 2.58495L10.1531 2.37502L9.93879 2.58495ZM9.9388 2.58496L10.1531 2.37503L9.9388 2.58496ZM10.1531 2.37502L9.3209 1.52545L8.89228 1.94531L9.72448 2.79488L10.1531 2.37502ZM10.3346 2.57823C10.2777 2.50832 10.2172 2.4405 10.1531 2.37503L9.72449 2.79488C9.77566 2.84713 9.82388 2.90119 9.86916 2.95685L10.3346 2.57823ZM11.1966 2.14344C11.0835 1.98684 10.9576 1.83698 10.8189 1.6954L10.3903 2.11524C10.5079 2.2353 10.6145 2.3622 10.7101 2.49464L11.1966 2.14344ZM10.8189 1.69535L9.98667 0.845789L9.55805 1.26565L10.3902 2.11521L10.8189 1.69535ZM9.98666 0.845785C8.49018 -0.681928 6.06124 -0.681928 4.56476 0.845784L4.99338 1.26564C6.25459 -0.0218819 8.29683 -0.0218814 9.55804 1.26565L9.98666 0.845785ZM4.56475 0.84579L0.819827 4.66884L1.24845 5.0887L4.99338 1.26565L4.56475 0.84579ZM0.819819 4.66885C-0.673269 6.1931 -0.673273 8.66187 0.819807 10.1861L1.24843 9.76628C-0.0161474 8.47529 -0.016144 6.37969 1.24844 5.08871L0.819819 4.66885ZM0.819841 10.1862L1.65203 11.0357L2.08064 10.6158L1.24846 9.7663L0.819841 10.1862ZM1.65205 11.0357C3.14854 12.5634 5.57739 12.5634 7.07393 11.0357L6.64532 10.6158C5.38405 11.9034 3.34188 11.9034 2.08067 10.6159L1.65205 11.0357ZM7.07395 11.0357L9.50324 8.55574L9.07462 8.13588L6.64533 10.6158L7.07395 11.0357ZM6.40817 10.356L8.82373 7.89011L8.39511 7.47025L5.97955 9.93618L6.40817 10.356ZM2.31784 10.3561C3.44659 11.5084 5.27938 11.5084 6.40817 10.356L5.97955 9.93618C5.08603 10.8483 3.63993 10.8483 2.74646 9.93621L2.31784 10.3561ZM1.48561 9.50651L2.31778 10.356L2.7464 9.93615L1.91422 9.08664L1.48561 9.50651ZM1.48559 5.3485C0.360176 6.49739 0.360173 8.35759 1.48559 9.50648L1.91421 9.08662C1.0173 8.171 1.0173 6.68399 1.91421 5.76837L1.48559 5.3485ZM5.23053 1.52545L1.4856 5.3485L1.91422 5.76836L5.65915 1.94531L5.23053 1.52545ZM9.32089 1.52544C8.19208 0.373095 6.35934 0.373096 5.23053 1.52544L5.65915 1.9453C6.55268 1.03314 7.99874 1.03314 8.89227 1.9453L9.32089 1.52544ZM5.65915 1.94531C5.65915 1.94531 5.65915 1.94531 5.65915 1.9453L5.23053 1.52544C5.23053 1.52544 5.23053 1.52544 5.23053 1.52545L5.65915 1.94531ZM1.91421 5.76837C1.91421 5.76837 1.91422 5.76836 1.91422 5.76836L1.4856 5.3485C1.4856 5.3485 1.48559 5.3485 1.48559 5.3485L1.91421 5.76837ZM1.91422 9.08664C1.91422 9.08663 1.91421 9.08663 1.91421 9.08662L1.48559 9.50648C1.48559 9.50649 1.4856 9.5065 1.48561 9.50651L1.91422 9.08664ZM2.74646 9.93621C2.74644 9.93619 2.74642 9.93617 2.7464 9.93615L2.31778 10.356C2.3178 10.356 2.31782 10.356 2.31784 10.3561L2.74646 9.93621ZM5.97955 9.93618C5.97955 9.93618 5.97955 9.93618 5.97955 9.93618L6.40817 10.356C6.40817 10.356 6.40817 10.356 6.40817 10.356L5.97955 9.93618ZM9.50324 7.47025C9.1991 7.15977 8.69924 7.15977 8.39511 7.47025L8.82373 7.89011C8.89259 7.81981 9.00576 7.81981 9.07462 7.89011L9.50324 7.47025ZM9.50324 8.55574C9.79862 8.25419 9.79862 7.77179 9.50324 7.47025L9.07462 7.89011C9.1415 7.95838 9.1415 8.0676 9.07462 8.13588L9.50324 8.55574ZM7.07393 11.0357C7.07394 11.0357 7.07395 11.0357 7.07395 11.0357L6.64533 10.6158C6.64533 10.6158 6.64532 10.6158 6.64532 10.6158L7.07393 11.0357ZM1.65203 11.0357C1.65203 11.0357 1.65204 11.0357 1.65205 11.0357L2.08067 10.6159C2.08066 10.6158 2.08065 10.6158 2.08064 10.6158L1.65203 11.0357ZM0.819807 10.1861C0.819819 10.1861 0.81983 10.1862 0.819841 10.1862L1.24846 9.7663C1.24845 9.76629 1.24844 9.76628 1.24843 9.76628L0.819807 10.1861ZM0.819827 4.66884C0.819824 4.66884 0.819822 4.66885 0.819819 4.66885L1.24844 5.08871C1.24844 5.08871 1.24845 5.08871 1.24845 5.0887L0.819827 4.66884ZM4.56476 0.845784C4.56476 0.845786 4.56476 0.845788 4.56475 0.84579L4.99338 1.26565C4.99338 1.26565 4.99338 1.26565 4.99338 1.26564L4.56476 0.845784ZM9.98667 0.845789C9.98667 0.845788 9.98666 0.845787 9.98666 0.845785L9.55804 1.26565C9.55804 1.26565 9.55804 1.26565 9.55805 1.26565L9.98667 0.845789ZM10.8189 1.6954C10.8189 1.69538 10.8189 1.69536 10.8189 1.69535L10.3902 2.11521C10.3902 2.11522 10.3903 2.11523 10.3903 2.11524L10.8189 1.6954ZM11.1146 3.06246C11.3462 2.82606 11.411 2.44051 11.1966 2.14344L10.7101 2.49464C10.7332 2.52669 10.7385 2.58902 10.686 2.64258L11.1146 3.06246ZM9.86916 2.95685C10.1487 3.30046 10.7367 3.44829 11.1146 3.06246L10.686 2.64258C10.652 2.67732 10.6006 2.69693 10.531 2.68804C10.4586 2.67877 10.3842 2.63918 10.3346 2.57823L9.86916 2.95685ZM9.3209 1.52545C9.32089 1.52544 9.32089 1.52544 9.32089 1.52544L8.89227 1.9453C8.89227 1.9453 8.89227 1.94531 8.89228 1.94531L9.3209 1.52545ZM9.72448 2.79488C9.72448 2.79488 9.72448 2.79488 9.72449 2.79488L10.1531 2.37503C10.1531 2.37503 10.1531 2.37502 10.1531 2.37502L9.72448 2.79488Z" transform="translate(9.95154 16.0478)" fill="white" mask="url(#path-2-outside-1)"></path><mask id="path-4-outside-2" maskUnits="userSpaceOnUse" x="-1" y="-1" width="13" height="14" fill="black"><rect fill="white" x="-1" y="-1" width="13" height="14"></rect><path fill-rule="evenodd" clip-rule="evenodd" d="M9.10658 1.73537C9.10658 1.73537 9.10658 1.73538 9.10659 1.73538L9.93879 2.58495C9.9388 2.58495 9.9388 2.58495 9.9388 2.58496C9.99645 2.64381 10.0508 2.70475 10.1019 2.76754C10.3002 3.0113 10.6804 3.07698 10.9003 2.85252C11.0424 2.70754 11.0721 2.4836 10.9533 2.31904C10.849 2.17452 10.7327 2.03614 10.6046 1.90532C10.6046 1.9053 10.6046 1.90529 10.6045 1.90528L9.77236 1.05572C9.77236 1.05572 9.77235 1.05572 9.77235 1.05572C8.39351 -0.351905 6.15792 -0.351905 4.77907 1.05571C4.77907 1.05572 4.77907 1.05572 4.77906 1.05572L1.03414 4.87877C1.03413 4.87878 1.03413 4.87878 1.03413 4.87878C-0.344706 6.2864 -0.34471 8.56858 1.03412 9.9762C1.03413 9.97621 1.03414 9.97622 1.03415 9.97623L1.86633 10.8258C1.86634 10.8258 1.86635 10.8258 1.86636 10.8258C3.24521 12.2334 5.48072 12.2334 6.85962 10.8258C6.85963 10.8258 6.85964 10.8258 6.85964 10.8258L9.28893 8.34581C9.47006 8.1609 9.47006 7.86509 9.28893 7.68018C9.10243 7.48979 8.79591 7.48979 8.60942 7.68018L6.19386 10.1461C6.19386 10.1461 6.19386 10.1461 6.19386 10.1461C5.1827 11.1784 3.54326 11.1784 2.53215 10.1461C2.53213 10.1461 2.53211 10.1461 2.53209 10.1461L1.69991 9.29657C1.69991 9.29657 1.6999 9.29656 1.6999 9.29655C0.688737 8.2643 0.688739 6.59069 1.6999 5.55844C1.6999 5.55843 1.69991 5.55843 1.69991 5.55843L5.44484 1.73538C5.44484 1.73538 5.44484 1.73537 5.44484 1.73537C6.45601 0.703119 8.09541 0.703118 9.10658 1.73537Z"></path></mask><path fill-rule="evenodd" clip-rule="evenodd" d="M9.10658 1.73537C9.10658 1.73537 9.10658 1.73538 9.10659 1.73538L9.93879 2.58495C9.9388 2.58495 9.9388 2.58495 9.9388 2.58496C9.99645 2.64381 10.0508 2.70475 10.1019 2.76754C10.3002 3.0113 10.6804 3.07698 10.9003 2.85252C11.0424 2.70754 11.0721 2.4836 10.9533 2.31904C10.849 2.17452 10.7327 2.03614 10.6046 1.90532C10.6046 1.9053 10.6046 1.90529 10.6045 1.90528L9.77236 1.05572C9.77236 1.05572 9.77235 1.05572 9.77235 1.05572C8.39351 -0.351905 6.15792 -0.351905 4.77907 1.05571C4.77907 1.05572 4.77907 1.05572 4.77906 1.05572L1.03414 4.87877C1.03413 4.87878 1.03413 4.87878 1.03413 4.87878C-0.344706 6.2864 -0.34471 8.56858 1.03412 9.9762C1.03413 9.97621 1.03414 9.97622 1.03415 9.97623L1.86633 10.8258C1.86634 10.8258 1.86635 10.8258 1.86636 10.8258C3.24521 12.2334 5.48072 12.2334 6.85962 10.8258C6.85963 10.8258 6.85964 10.8258 6.85964 10.8258L9.28893 8.34581C9.47006 8.1609 9.47006 7.86509 9.28893 7.68018C9.10243 7.48979 8.79591 7.48979 8.60942 7.68018L6.19386 10.1461C6.19386 10.1461 6.19386 10.1461 6.19386 10.1461C5.1827 11.1784 3.54326 11.1784 2.53215 10.1461C2.53213 10.1461 2.53211 10.1461 2.53209 10.1461L1.69991 9.29657C1.69991 9.29657 1.6999 9.29656 1.6999 9.29655C0.688737 8.2643 0.688739 6.59069 1.6999 5.55844C1.6999 5.55843 1.69991 5.55843 1.69991 5.55843L5.44484 1.73538C5.44484 1.73538 5.44484 1.73537 5.44484 1.73537C6.45601 0.703119 8.09541 0.703118 9.10658 1.73537Z" transform="translate(28.9286 22.8312) rotate(-180)" fill="white"></path><path d="M5.44484 1.73538L5.23053 1.52545L5.44484 1.73538ZM5.44484 1.73537L5.23053 1.52544L5.44484 1.73537ZM1.6999 5.55844L1.48559 5.3485L1.6999 5.55844ZM1.69991 5.55843L1.91422 5.76836L1.69991 5.55843ZM1.69991 9.29657L1.91422 9.08664L1.69991 9.29657ZM1.6999 9.29655L1.91421 9.08662L1.6999 9.29655ZM2.53215 10.1461L2.31784 10.3561L2.53215 10.1461ZM2.53209 10.1461L2.31778 10.356L2.53209 10.1461ZM6.19386 10.1461L5.97955 9.93618L6.19386 10.1461ZM6.19386 10.1461L6.40817 10.356L6.19386 10.1461ZM8.60942 7.68018L8.82373 7.89011L8.60942 7.68018ZM9.28893 8.34581L9.07462 8.13588L9.28893 8.34581ZM6.85962 10.8258L6.64532 10.6158L6.85962 10.8258ZM6.85964 10.8258L7.07395 11.0357L6.85964 10.8258ZM1.86633 10.8258L2.08064 10.6158L1.86633 10.8258ZM1.86636 10.8258L2.08067 10.6159L1.86636 10.8258ZM1.03412 9.9762L1.24843 9.76628L1.03412 9.9762ZM1.03415 9.97623L0.819841 10.1862L1.03415 9.97623ZM1.03414 4.87877L0.819827 4.66884L1.03414 4.87877ZM1.03413 4.87878L1.24844 5.08871L1.03413 4.87878ZM4.77907 1.05571L4.99338 1.26564L4.77907 1.05571ZM4.77906 1.05572L4.99338 1.26565L4.77906 1.05572ZM9.77236 1.05572L9.55805 1.26565L9.77236 1.05572ZM9.77235 1.05572L9.98666 0.845785L9.77235 1.05572ZM10.6046 1.90532L10.8189 1.6954L10.6046 1.90532ZM10.6045 1.90528L10.8189 1.69535L10.6045 1.90528ZM10.9533 2.31904L10.7101 2.49464L10.9533 2.31904ZM10.1019 2.76754L9.86916 2.95685L10.1019 2.76754ZM9.10659 1.73538L9.3209 1.52545L9.10659 1.73538ZM9.10658 1.73537L8.89227 1.9453L9.10658 1.73537ZM9.93879 2.58495L10.1531 2.37502L9.93879 2.58495ZM9.9388 2.58496L10.1531 2.37503L9.9388 2.58496ZM10.1531 2.37502L9.3209 1.52545L8.89228 1.94531L9.72448 2.79488L10.1531 2.37502ZM10.3346 2.57823C10.2777 2.50832 10.2172 2.4405 10.1531 2.37503L9.72449 2.79488C9.77566 2.84713 9.82388 2.90119 9.86916 2.95685L10.3346 2.57823ZM11.1966 2.14344C11.0835 1.98684 10.9576 1.83698 10.8189 1.6954L10.3903 2.11524C10.5079 2.2353 10.6145 2.3622 10.7101 2.49464L11.1966 2.14344ZM10.8189 1.69535L9.98667 0.845789L9.55805 1.26565L10.3902 2.11521L10.8189 1.69535ZM9.98666 0.845785C8.49018 -0.681928 6.06124 -0.681928 4.56476 0.845784L4.99338 1.26564C6.25459 -0.0218819 8.29683 -0.0218814 9.55804 1.26565L9.98666 0.845785ZM4.56475 0.84579L0.819827 4.66884L1.24845 5.0887L4.99338 1.26565L4.56475 0.84579ZM0.819819 4.66885C-0.673269 6.1931 -0.673273 8.66187 0.819807 10.1861L1.24843 9.76628C-0.0161474 8.47529 -0.016144 6.37969 1.24844 5.08871L0.819819 4.66885ZM0.819841 10.1862L1.65203 11.0357L2.08064 10.6158L1.24846 9.7663L0.819841 10.1862ZM1.65205 11.0357C3.14854 12.5634 5.57739 12.5634 7.07393 11.0357L6.64532 10.6158C5.38405 11.9034 3.34188 11.9034 2.08067 10.6159L1.65205 11.0357ZM7.07395 11.0357L9.50324 8.55574L9.07462 8.13588L6.64533 10.6158L7.07395 11.0357ZM6.40817 10.356L8.82373 7.89011L8.39511 7.47025L5.97955 9.93618L6.40817 10.356ZM2.31784 10.3561C3.44659 11.5084 5.27938 11.5084 6.40817 10.356L5.97955 9.93618C5.08603 10.8483 3.63993 10.8483 2.74646 9.93621L2.31784 10.3561ZM1.48561 9.50651L2.31778 10.356L2.7464 9.93615L1.91422 9.08664L1.48561 9.50651ZM1.48559 5.3485C0.360176 6.49739 0.360173 8.35759 1.48559 9.50648L1.91421 9.08662C1.0173 8.171 1.0173 6.68399 1.91421 5.76837L1.48559 5.3485ZM5.23053 1.52545L1.4856 5.3485L1.91422 5.76836L5.65915 1.94531L5.23053 1.52545ZM9.32089 1.52544C8.19208 0.373095 6.35934 0.373096 5.23053 1.52544L5.65915 1.9453C6.55268 1.03314 7.99874 1.03314 8.89227 1.9453L9.32089 1.52544ZM5.65915 1.94531C5.65915 1.94531 5.65915 1.94531 5.65915 1.9453L5.23053 1.52544C5.23053 1.52544 5.23053 1.52544 5.23053 1.52545L5.65915 1.94531ZM1.91421 5.76837C1.91421 5.76837 1.91422 5.76836 1.91422 5.76836L1.4856 5.3485C1.4856 5.3485 1.48559 5.3485 1.48559 5.3485L1.91421 5.76837ZM1.91422 9.08664C1.91422 9.08663 1.91421 9.08663 1.91421 9.08662L1.48559 9.50648C1.48559 9.50649 1.4856 9.5065 1.48561 9.50651L1.91422 9.08664ZM2.74646 9.93621C2.74644 9.93619 2.74642 9.93617 2.7464 9.93615L2.31778 10.356C2.3178 10.356 2.31782 10.356 2.31784 10.3561L2.74646 9.93621ZM5.97955 9.93618C5.97955 9.93618 5.97955 9.93618 5.97955 9.93618L6.40817 10.356C6.40817 10.356 6.40817 10.356 6.40817 10.356L5.97955 9.93618ZM9.50324 7.47025C9.1991 7.15977 8.69924 7.15977 8.39511 7.47025L8.82373 7.89011C8.89259 7.81981 9.00576 7.81981 9.07462 7.89011L9.50324 7.47025ZM9.50324 8.55574C9.79862 8.25419 9.79862 7.77179 9.50324 7.47025L9.07462 7.89011C9.1415 7.95838 9.1415 8.0676 9.07462 8.13588L9.50324 8.55574ZM7.07393 11.0357C7.07394 11.0357 7.07395 11.0357 7.07395 11.0357L6.64533 10.6158C6.64533 10.6158 6.64532 10.6158 6.64532 10.6158L7.07393 11.0357ZM1.65203 11.0357C1.65203 11.0357 1.65204 11.0357 1.65205 11.0357L2.08067 10.6159C2.08066 10.6158 2.08065 10.6158 2.08064 10.6158L1.65203 11.0357ZM0.819807 10.1861C0.819819 10.1861 0.81983 10.1862 0.819841 10.1862L1.24846 9.7663C1.24845 9.76629 1.24844 9.76628 1.24843 9.76628L0.819807 10.1861ZM0.819827 4.66884C0.819824 4.66884 0.819822 4.66885 0.819819 4.66885L1.24844 5.08871C1.24844 5.08871 1.24845 5.08871 1.24845 5.0887L0.819827 4.66884ZM4.56476 0.845784C4.56476 0.845786 4.56476 0.845788 4.56475 0.84579L4.99338 1.26565C4.99338 1.26565 4.99338 1.26565 4.99338 1.26564L4.56476 0.845784ZM9.98667 0.845789C9.98667 0.845788 9.98666 0.845787 9.98666 0.845785L9.55804 1.26565C9.55804 1.26565 9.55804 1.26565 9.55805 1.26565L9.98667 0.845789ZM10.8189 1.6954C10.8189 1.69538 10.8189 1.69536 10.8189 1.69535L10.3902 2.11521C10.3902 2.11522 10.3903 2.11523 10.3903 2.11524L10.8189 1.6954ZM11.1146 3.06246C11.3462 2.82606 11.411 2.44051 11.1966 2.14344L10.7101 2.49464C10.7332 2.52669 10.7385 2.58902 10.686 2.64258L11.1146 3.06246ZM9.86916 2.95685C10.1487 3.30046 10.7367 3.44829 11.1146 3.06246L10.686 2.64258C10.652 2.67732 10.6006 2.69693 10.531 2.68804C10.4586 2.67877 10.3842 2.63918 10.3346 2.57823L9.86916 2.95685ZM9.3209 1.52545C9.32089 1.52544 9.32089 1.52544 9.32089 1.52544L8.89227 1.9453C8.89227 1.9453 8.89227 1.94531 8.89228 1.94531L9.3209 1.52545ZM9.72448 2.79488C9.72448 2.79488 9.72448 2.79488 9.72449 2.79488L10.1531 2.37503C10.1531 2.37503 10.1531 2.37502 10.1531 2.37502L9.72448 2.79488Z" transform="translate(28.9286 22.8312) rotate(-180)" fill="white" mask="url(#path-4-outside-2)"></path></svg>